The Shining (1980) Digitally Restored & Remastered

Director: Stanley Kubrick

The Shining is a 1980 psychological horror film directed by Stanley Kubrick, co-written with novelist Diane Johnson, and starring Jack Nicholson, Shelley Duvall, and Danny Lloyd. The film is based on the novel of the same name, by Stephen King, about a writer with a wife and young son who accepts the job of an off-season caretaker at an isolated hotel. The son, who possesses psychic abilities, is able to see things in the future and past, such as the ghosts in the hotel. Soon after moving in, and after a paralyzing winter storm that leaves the family snowed in, the father becomes influenced by the supernatural presence in the haunted hotel; he descends into madness and attempts to murder his wife and son.

Unlike most films by Stanley Kubrick, which saw a slow gradual release building on word-of-mouth, The Shining was released in a manner more like a mass-market film, opening at first in just two cities on Memorial Day, and then a month later seeing a nationwide release (including drive-ins) after extensive television advertising. Although initial response to the film was mixed, later critical assessment had been more favorable and it is now viewed as a classic of the horror genre. Martin Scorsese, writing in The Daily Beast, ranked it as one of the best horror films. Film critics, film students, and Kubrick's producer, Jan Harlan, have all remarked on the enormous influence the film has had on popular culture which ranges from other macabre thrillers to the cartoon series The Simpsons.

There is a great deal of confusion regarding this film and the number of retakes of certain scenes. According to the Guinness Book of Records, the scene where Wendy is backing up the stairs swinging the baseball bat was shot 127 times, which is a record for the most takes of a single scene. However, both Steadicam operator Garrett Brown and assistant editor Gordon Stainforth say this is inaccurate - the scene was shot about 35-45 times. Brown does say however that the scene where Hallorann explains to Danny what shining is was shot 148 times, which is a world record. 

Media Info:
General
Complete name                    : J:\Seeding\The Shining (1980)[DVDRip][big_dad_e™]\The Shining (1980)[DVDRip][big_dad_e™].avi
Format                           : AVI
Format/Info                      : Audio Video Interleave
Format profile                   : OpenDML
File size                        : 1.81 GiB
Duration                         : 2h 23mn
Overall bit rate                 : 1 805 Kbps
Movie name                       : THE_SHINING.Title1.DVDRip
Writing application              : Lavf52.78.4
Original source form/Name        : THE_SHINING

Video
ID                               : 0
Format                           : MPEG-4 Visual
Format profile                   : Advanced Simple@L5
Format settings, BVOP            : 2
Format settings, QPel            : No
Format settings, GMC             : No warppoints
Format settings, Matrix          : Default (H.263)
Muxing mode                      : Packed bitstream
Codec ID                         : XVID
Codec ID/Hint                    : XviD
Duration                         : 2h 23mn
Bit rate                         : 1 472 Kbps
Width                            : 640 pixels
Height                           : 480 pixels
Display aspect ratio             : 4:3
Frame rate                       : 23.976 fps
Color space                      : YUV
Chroma subsampling               : 4:2:0
Bit depth                        : 8 bits
Scan type                        : Progressive
Compression mode                 : Lossy
Bits/(Pixel*Frame)               : 0.200
Stream size                      : 1.48 GiB (82%)
Writing library                  : XviD 1.2.1 (UTC 2008-12-04)

Audio
ID                               : 1
Format                           : MPEG Audio
Format version                   : Version 1
Format profile                   : Layer 3
Mode                             : Joint stereo
Codec ID                         : 55
Codec ID/Hint                    : MP3
Duration                         : 2h 23mn
Bit rate mode                    : Constant
Bit rate                         : 320 Kbps
Channel(s)                       : 2 channels
Sampling rate                    : 48.0 KHz
Compression mode                 : Lossy
Stream size                      : 5.64 MiB (0%)
Alignment                        : Aligned on interleaves
Interleave, duration             : 1401 ms (33.60 video frames)
Interleave, preload duration     : 24 ms
Writing library                  : LAME3.98.4

File Scan:
Malwarebytes' Anti-Malware 1.50.1.1100
www.malwarebytes.org

Database version: 6307
4/7/2011 7:42:59 PM
mbam-log-2011-04-07 (19-42-59).txt

Scan type: Quick scan
Objects scanned: 5
Time elapsed: 33 second(s)

Memory Processes Infected: 0
Memory Modules Infected: 0
Registry Keys Infected: 0
Registry Values Infected: 0
Registry Data Items Infected: 0
Folders Infected: 0
Files Infected: 0

Memory Processes Infected:
(No malicious items detected)

Memory Modules Infected:
(No malicious items detected)

Registry Keys Infected:
(No malicious items detected)

Registry Values Infected:
(No malicious items detected)

Registry Data Items Infected:
(No malicious items detected)

Folders Infected:
(No malicious items detected)

Files Infected:
(No malicious items detected)

When using TPB please read these important notes:
  
01- Anti-malware apps may warn about keygens, patches, cracks, etc., because of 
    their capabilities, (generating codes, etc.). Sometimes they're added to 
    the virus/spyware database and will be detected as malware. If you don't trust
    the keygens, patches, cracks, etc., don't use them. 
    
02- Before running .exe-files, keygens, patches, cracks, etc., always check first 
    if they can be unpacked. Often some third party added a virus to the 
    original file, repacked it and uploaded it again.

03- Letting anti-malware apps send scan results to their companies can cause
    keygens, patches, cracks, etc., to be added to their virus-database.

04- Firewalls which are set to automatically determine connections will allow 
    apps & malware!. Avoid this by manually configuring your firewall.

05- Usually (new) torrents with many downloads and seeders in a brief period is
    suspicious! Torrents with the Skull & Crossbones icon are trusted.

06- Some people use multiple accounts and post fake comments 
    and/or files trying to spread confusion. They seldom seriously
    comment or have any torrents, or a just a few to look passable.

07- Clicking on unknown links can cause malware to be installed on your machine.
  
08- In general often there are more fake and negative comments than reliable and
    positive comments.

09- In some countries uploading/downloading copyright protected material is 
    forbidden, but showing some appreciation to reliable up-loaders is not.

10- Posting fake and negative comments or fake/infected uploads on TPB can result
    in getting banned from TPB!

Requests?  Find me on SuprBay. http://forum.suprbay.org
 

For reporting bad or suspicious torrents:  
http://forum.suprbay.org/forumdisplay.php?fid=29

For more of my torrents: 
https://thepiratebay.org/user/big_dad_e/  (Secured)

All torrents scanned with:
Norton Anti-virus
Malwarebytes' Anti-malware
 
http://www.pirate-party.us/

ALWAYS SEED & THANKS SEEDERS!